<?xml version="1.0" encoding="UTF-8" standalone="no"?>
<!DOCTYPE svg PUBLIC "-//W3C//DTD SVG 1.1//EN" "http://www.w3.org/Graphics/SVG/1.1/DTD/svg11.dtd">
<svg width="100%" height="100%" viewBox="0 0 1678 1002" version="1.1" xmlns="http://www.w3.org/2000/svg" xmlns:xlink="http://www.w3.org/1999/xlink" xml:space="preserve" xmlns:serif="http://www.serif.com/" style="fill-rule:evenodd;clip-rule:evenodd;stroke-linejoin:round;stroke-miterlimit:2;">
    <g transform="matrix(1,0,0,1,-500,-498.452)">
        <g id="Semiquavers-1e-a" serif:id="Semiquavers 1e&amp;a" transform="matrix(0.35666,0,0,0.35666,471.467,72.3627)">
            <g transform="matrix(1,0,0,1,-719.899,3.63798e-12)">
                <path d="M1626.2,3308.51L1626.2,1200L1706.2,1200L1706.2,3520L1706.17,3520C1704.21,3668.22 1605.17,3827.49 1439.19,3923.32C1211.2,4054.95 942.694,4017.35 839.959,3839.41C737.224,3661.46 838.917,3410.13 1066.91,3278.5C1269.66,3161.44 1504.46,3178.22 1626.2,3308.51Z"/>
            </g>
            <g transform="matrix(1,0,0,1,562.573,0.901336)">
                <path d="M1626.2,3308.51L1626.2,1200L1706.2,1200L1706.2,3520L1706.17,3520C1704.21,3668.22 1605.17,3827.49 1439.19,3923.32C1211.2,4054.95 942.694,4017.35 839.959,3839.41C737.224,3661.46 838.917,3410.13 1066.91,3278.5C1269.66,3161.44 1504.46,3178.22 1626.2,3308.51Z"/>
            </g>
            <g transform="matrix(1,0,0,1,1803.69,-5.33311)">
                <path d="M1626.2,3308.51L1626.2,1200L1706.2,1200L1706.2,3520L1706.17,3520C1704.21,3668.22 1605.17,3827.49 1439.19,3923.32C1211.2,4054.95 942.694,4017.35 839.959,3839.41C737.224,3661.46 838.917,3410.13 1066.91,3278.5C1269.66,3161.44 1504.46,3178.22 1626.2,3308.51Z"/>
            </g>
            <g transform="matrix(1,0,0,1,3078.31,-10.9813)">
                <path d="M1626.2,3308.51L1624.97,1211.07L1704.97,1211.07L1706.2,3520L1706.17,3520C1704.21,3668.22 1605.17,3827.49 1439.19,3923.32C1211.2,4054.95 942.694,4017.35 839.959,3839.41C737.224,3661.46 838.917,3410.13 1066.91,3278.5C1269.66,3161.44 1504.46,3178.22 1626.2,3308.51Z"/>
            </g>
            <g transform="matrix(-1.53206e-15,8,6.8488,-1.73949e-15,-17708.7,-11280)">
                <rect x="1560" y="2720" width="40" height="560"/>
            </g>
            <g transform="matrix(-4.00353e-16,4,6.83574,9.66068e-17,-17673.2,-4518.72)">
                <rect x="1560" y="2720" width="40" height="560"/>
            </g>
        </g>
    </g>
</svg>
